<svg xmlns="http://www.w3.org/2000/svg" xmlns:xlink="http://www.w3.org/1999/xlink" class="httpgd" width="1200.00" height="600.00" viewBox="0 0 1200.00 600.00">
<defs>
  <style type='text/css'><![CDATA[
    .httpgd line, .httpgd polyline, .httpgd polygon, .httpgd path, .httpgd rect, .httpgd circle {
      fill: none;
      stroke: #000000;
      stroke-linecap: round;
      stroke-linejoin: round;
      stroke-miterlimit: 10.00;
    }
  ]]></style>
<clipPath id="c0"><rect x="0.00" y="0.00" width="1200.00" height="600.00"/></clipPath>
<clipPath id="c1"><rect x="0.00" y="0.00" width="43.06" height="23.34"/></clipPath>
<clipPath id="c2"><rect x="0.00" y="0.00" width="1200.00" height="600.00"/></clipPath>
<clipPath id="c3"><rect x="508.72" y="0.00" width="43.06" height="23.34"/></clipPath>
<clipPath id="c4"><rect x="0.00" y="0.00" width="1200.00" height="600.00"/></clipPath>
<clipPath id="c5"><rect x="0.00" y="23.34" width="43.06" height="534.21"/></clipPath>
<clipPath id="c6"><rect x="0.00" y="0.00" width="1200.00" height="600.00"/></clipPath>
<clipPath id="c7"><rect x="0.00" y="23.34" width="43.06" height="534.21"/></clipPath>
<clipPath id="c8"><rect x="0.00" y="0.00" width="1200.00" height="600.00"/></clipPath>
<clipPath id="c9"><rect x="0.00" y="23.34" width="43.06" height="534.21"/></clipPath>
<clipPath id="c10"><rect x="-0.00" y="23.34" width="0.00" height="534.21"/></clipPath>
<clipPath id="c11"><rect x="0.00" y="23.34" width="43.06" height="534.21"/></clipPath>
<clipPath id="c12"><rect x="0.00" y="0.00" width="1200.00" height="600.00"/></clipPath>
<clipPath id="c13"><rect x="508.72" y="23.34" width="43.06" height="534.21"/></clipPath>
<clipPath id="c14"><rect x="0.00" y="0.00" width="1200.00" height="600.00"/></clipPath>
<clipPath id="c15"><rect x="508.72" y="23.34" width="43.06" height="534.21"/></clipPath>
<clipPath id="c16"><rect x="0.00" y="0.00" width="1200.00" height="600.00"/></clipPath>
<clipPath id="c17"><rect x="508.72" y="23.34" width="43.06" height="534.21"/></clipPath>
<clipPath id="c18"><rect x="508.72" y="23.34" width="0.00" height="534.21"/></clipPath>
<clipPath id="c19"><rect x="508.72" y="23.34" width="43.06" height="534.21"/></clipPath>
<clipPath id="c20"><rect x="0.00" y="0.00" width="1200.00" height="600.00"/></clipPath>
<clipPath id="c21"><rect x="0.00" y="557.55" width="43.06" height="42.45"/></clipPath>
<clipPath id="c22"><rect x="0.00" y="0.00" width="1200.00" height="600.00"/></clipPath>
<clipPath id="c23"><rect x="508.72" y="557.55" width="43.06" height="42.45"/></clipPath>
<clipPath id="c24"><rect x="0.00" y="0.00" width="1200.00" height="600.00"/></clipPath>
<clipPath id="c25"><rect x="43.06" y="0.00" width="460.18" height="23.34"/></clipPath>
<clipPath id="c26"><rect x="0.00" y="0.00" width="1200.00" height="600.00"/></clipPath>
<clipPath id="c27"><rect x="43.06" y="0.00" width="460.18" height="23.34"/></clipPath>
<clipPath id="c28"><rect x="0.00" y="0.00" width="1200.00" height="600.00"/></clipPath>
<clipPath id="c29"><rect x="43.06" y="0.00" width="460.18" height="23.34"/></clipPath>
<clipPath id="c30"><rect x="0.00" y="0.00" width="1200.00" height="600.00"/></clipPath>
<clipPath id="c31"><rect x="43.06" y="0.00" width="460.18" height="23.34"/></clipPath>
<clipPath id="c32"><rect x="0.00" y="0.00" width="1200.00" height="600.00"/></clipPath>
<clipPath id="c33"><rect x="43.06" y="0.00" width="460.18" height="23.34"/></clipPath>
<clipPath id="c34"><rect x="43.06" y="0.00" width="460.18" height="0.00"/></clipPath>
<clipPath id="c35"><rect x="43.06" y="0.00" width="460.18" height="23.34"/></clipPath>
<clipPath id="c36"><rect x="0.00" y="0.00" width="1200.00" height="600.00"/></clipPath>
<clipPath id="c37"><rect x="551.78" y="0.00" width="460.18" height="23.34"/></clipPath>
<clipPath id="c38"><rect x="0.00" y="0.00" width="1200.00" height="600.00"/></clipPath>
<clipPath id="c39"><rect x="551.78" y="0.00" width="460.18" height="23.34"/></clipPath>
<clipPath id="c40"><rect x="0.00" y="0.00" width="1200.00" height="600.00"/></clipPath>
<clipPath id="c41"><rect x="551.78" y="0.00" width="460.18" height="23.34"/></clipPath>
<clipPath id="c42"><rect x="0.00" y="0.00" width="1200.00" height="600.00"/></clipPath>
<clipPath id="c43"><rect x="551.78" y="0.00" width="460.18" height="23.34"/></clipPath>
<clipPath id="c44"><rect x="0.00" y="0.00" width="1200.00" height="600.00"/></clipPath>
<clipPath id="c45"><rect x="551.78" y="0.00" width="460.18" height="23.34"/></clipPath>
<clipPath id="c46"><rect x="551.78" y="0.00" width="460.18" height="0.00"/></clipPath>
<clipPath id="c47"><rect x="551.78" y="0.00" width="460.18" height="23.34"/></clipPath>
<clipPath id="c48"><rect x="0.00" y="0.00" width="1200.00" height="600.00"/></clipPath>
<clipPath id="c49"><rect x="43.06" y="23.34" width="460.18" height="534.21"/></clipPath>
<clipPath id="c50"><rect x="0.00" y="0.00" width="1200.00" height="600.00"/></clipPath>
<clipPath id="c51"><rect x="551.78" y="23.34" width="460.18" height="534.21"/></clipPath>
<clipPath id="c52"><rect x="0.00" y="0.00" width="1200.00" height="600.00"/></clipPath>
<clipPath id="c53"><rect x="43.06" y="557.55" width="460.18" height="42.45"/></clipPath>
<clipPath id="c54"><rect x="0.00" y="0.00" width="1200.00" height="600.00"/></clipPath>
<clipPath id="c55"><rect x="43.06" y="557.55" width="460.18" height="42.45"/></clipPath>
<clipPath id="c56"><rect x="0.00" y="0.00" width="1200.00" height="600.00"/></clipPath>
<clipPath id="c57"><rect x="43.06" y="557.55" width="460.18" height="42.45"/></clipPath>
<clipPath id="c58"><rect x="0.00" y="0.00" width="1200.00" height="600.00"/></clipPath>
<clipPath id="c59"><rect x="43.06" y="557.55" width="460.18" height="42.45"/></clipPath>
<clipPath id="c60"><rect x="43.06" y="600.00" width="460.18" height="0.00"/></clipPath>
<clipPath id="c61"><rect x="43.06" y="557.55" width="460.18" height="42.45"/></clipPath>
<clipPath id="c62"><rect x="0.00" y="0.00" width="1200.00" height="600.00"/></clipPath>
<clipPath id="c63"><rect x="551.78" y="557.55" width="460.18" height="42.45"/></clipPath>
<clipPath id="c64"><rect x="0.00" y="0.00" width="1200.00" height="600.00"/></clipPath>
<clipPath id="c65"><rect x="551.78" y="557.55" width="460.18" height="42.45"/></clipPath>
<clipPath id="c66"><rect x="0.00" y="0.00" width="1200.00" height="600.00"/></clipPath>
<clipPath id="c67"><rect x="551.78" y="557.55" width="460.18" height="42.45"/></clipPath>
<clipPath id="c68"><rect x="0.00" y="0.00" width="1200.00" height="600.00"/></clipPath>
<clipPath id="c69"><rect x="551.78" y="557.55" width="460.18" height="42.45"/></clipPath>
<clipPath id="c70"><rect x="551.78" y="589.28" width="460.18" height="10.72"/></clipPath>
<clipPath id="c71"><rect x="551.78" y="557.55" width="460.18" height="42.45"/></clipPath>
<clipPath id="c72"><rect x="0.00" y="0.00" width="1200.00" height="600.00"/></clipPath>
<clipPath id="c73"><rect x="503.24" y="0.00" width="5.48" height="23.34"/></clipPath>
<clipPath id="c74"><rect x="0.00" y="0.00" width="1200.00" height="600.00"/></clipPath>
<clipPath id="c75"><rect x="1011.96" y="0.00" width="188.04" height="23.34"/></clipPath>
<clipPath id="c76"><rect x="0.00" y="0.00" width="1200.00" height="600.00"/></clipPath>
<clipPath id="c77"><rect x="503.24" y="23.34" width="5.48" height="534.21"/></clipPath>
<clipPath id="c78"><rect x="0.00" y="0.00" width="1200.00" height="600.00"/></clipPath>
<clipPath id="c79"><rect x="503.24" y="23.34" width="5.48" height="534.21"/></clipPath>
<clipPath id="c80"><rect x="0.00" y="0.00" width="1200.00" height="600.00"/></clipPath>
<clipPath id="c81"><rect x="503.24" y="23.34" width="5.48" height="534.21"/></clipPath>
<clipPath id="c82"><rect x="508.72" y="23.34" width="0.00" height="534.21"/></clipPath>
<clipPath id="c83"><rect x="503.24" y="23.34" width="5.48" height="534.21"/></clipPath>
<clipPath id="c84"><rect x="0.00" y="0.00" width="1200.00" height="600.00"/></clipPath>
<clipPath id="c85"><rect x="1011.96" y="23.34" width="188.04" height="534.21"/></clipPath>
<clipPath id="c86"><rect x="0.00" y="0.00" width="1200.00" height="600.00"/></clipPath>
<clipPath id="c87"><rect x="1011.96" y="23.34" width="188.04" height="534.21"/></clipPath>
<clipPath id="c88"><rect x="0.00" y="0.00" width="1200.00" height="600.00"/></clipPath>
<clipPath id="c89"><rect x="1011.96" y="23.34" width="188.04" height="534.21"/></clipPath>
<clipPath id="c90"><rect x="0.00" y="0.00" width="1200.00" height="600.00"/></clipPath>
<clipPath id="c91"><rect x="1011.96" y="23.34" width="188.04" height="534.21"/></clipPath>
<clipPath id="c92"><rect x="1200.00" y="23.34" width="0.00" height="534.21"/></clipPath>
<clipPath id="c93"><rect x="1011.96" y="23.34" width="188.04" height="534.21"/></clipPath>
<clipPath id="c94"><rect x="0.00" y="0.00" width="1200.00" height="600.00"/></clipPath>
<clipPath id="c95"><rect x="503.24" y="557.55" width="5.48" height="42.45"/></clipPath>
<clipPath id="c96"><rect x="0.00" y="0.00" width="1200.00" height="600.00"/></clipPath>
<clipPath id="c97"><rect x="1011.96" y="557.55" width="188.04" height="42.45"/></clipPath>
<clipPath id="c98"><rect x="0.00" y="0.00" width="1200.00" height="600.00"/></clipPath>
</defs>
<rect width="100%" height="100%" style="stroke: none;fill: #FFFFFF;"/>
<g clip-path="url(#c0)">
</g><g clip-path="url(#c6)">
<g><text x="38.13" y="536.42" text-anchor="end" style="font-family: Arial;font-size: 8.80px;fill: #4D4D4D;" textLength="4.90px" lengthAdjust="spacingAndGlyphs">0</text></g>
<g><text x="38.13" y="419.93" text-anchor="end" style="font-family: Arial;font-size: 8.80px;fill: #4D4D4D;" textLength="19.58px" lengthAdjust="spacingAndGlyphs">1000</text></g>
<g><text x="38.13" y="303.44" text-anchor="end" style="font-family: Arial;font-size: 8.80px;fill: #4D4D4D;" textLength="19.58px" lengthAdjust="spacingAndGlyphs">2000</text></g>
<g><text x="38.13" y="186.95" text-anchor="end" style="font-family: Arial;font-size: 8.80px;fill: #4D4D4D;" textLength="19.58px" lengthAdjust="spacingAndGlyphs">3000</text></g>
<g><text x="38.13" y="70.46" text-anchor="end" style="font-family: Arial;font-size: 8.80px;fill: #4D4D4D;" textLength="19.58px" lengthAdjust="spacingAndGlyphs">4000</text></g>
</g><g clip-path="url(#c8)">
<g><text transform="translate(13.37,290.44) rotate(-90.00)" text-anchor="middle" style="font-family: Arial;font-size: 11.00px;" textLength="107.00px" lengthAdjust="spacingAndGlyphs">Occurrences in media</text></g>
</g><g clip-path="url(#c14)">
<g><text x="546.85" y="444.08" text-anchor="end" style="font-family: Arial;font-size: 8.80px;fill: #4D4D4D;" textLength="19.58px" lengthAdjust="spacingAndGlyphs">1000</text></g>
<g><text x="546.85" y="319.97" text-anchor="end" style="font-family: Arial;font-size: 8.80px;fill: #4D4D4D;" textLength="19.58px" lengthAdjust="spacingAndGlyphs">2000</text></g>
<g><text x="546.85" y="195.86" text-anchor="end" style="font-family: Arial;font-size: 8.80px;fill: #4D4D4D;" textLength="19.58px" lengthAdjust="spacingAndGlyphs">3000</text></g>
<g><text x="546.85" y="71.75" text-anchor="end" style="font-family: Arial;font-size: 8.80px;fill: #4D4D4D;" textLength="19.58px" lengthAdjust="spacingAndGlyphs">4000</text></g>
</g><g clip-path="url(#c16)">
<g><text transform="translate(522.09,290.44) rotate(-90.00)" text-anchor="middle" style="font-family: Arial;font-size: 11.00px;" textLength="107.00px" lengthAdjust="spacingAndGlyphs">Occurrences in media</text></g>
</g><g clip-path="url(#c32)">
<g><text x="43.06" y="14.94" style="font-family: Arial;font-size: 13.20px;" textLength="260.27px" lengthAdjust="spacingAndGlyphs">Occurrences in media within 6 months of ED</text></g>
</g><g clip-path="url(#c44)">
<g><text x="551.78" y="14.94" style="font-family: Arial;font-size: 13.20px;" textLength="200.88px" lengthAdjust="spacingAndGlyphs">Earnings vs Occurrences in media</text></g>
</g><g clip-path="url(#c49)">
<polyline points="43.06,475.02 503.24,475.02" style="stroke-width: 0.53;stroke: #EBEBEB;stroke-linecap: butt;"/>
<polyline points="43.06,358.53 503.24,358.53" style="stroke-width: 0.53;stroke: #EBEBEB;stroke-linecap: butt;"/>
<polyline points="43.06,242.04 503.24,242.04" style="stroke-width: 0.53;stroke: #EBEBEB;stroke-linecap: butt;"/>
<polyline points="43.06,125.55 503.24,125.55" style="stroke-width: 0.53;stroke: #EBEBEB;stroke-linecap: butt;"/>
<polyline points="43.06,533.27 503.24,533.27" style="stroke-width: 1.07;stroke: #EBEBEB;stroke-linecap: butt;"/>
<polyline points="43.06,416.78 503.24,416.78" style="stroke-width: 1.07;stroke: #EBEBEB;stroke-linecap: butt;"/>
<polyline points="43.06,300.29 503.24,300.29" style="stroke-width: 1.07;stroke: #EBEBEB;stroke-linecap: butt;"/>
<polyline points="43.06,183.80 503.24,183.80" style="stroke-width: 1.07;stroke: #EBEBEB;stroke-linecap: butt;"/>
<polyline points="43.06,67.31 503.24,67.31" style="stroke-width: 1.07;stroke: #EBEBEB;stroke-linecap: butt;"/>
<polyline points="96.16,557.55 96.16,23.34" style="stroke-width: 1.07;stroke: #EBEBEB;stroke-linecap: butt;"/>
<polyline points="184.65,557.55 184.65,23.34" style="stroke-width: 1.07;stroke: #EBEBEB;stroke-linecap: butt;"/>
<polyline points="273.15,557.55 273.15,23.34" style="stroke-width: 1.07;stroke: #EBEBEB;stroke-linecap: butt;"/>
<polyline points="361.65,557.55 361.65,23.34" style="stroke-width: 1.07;stroke: #EBEBEB;stroke-linecap: butt;"/>
<polyline points="450.14,557.55 450.14,23.34" style="stroke-width: 1.07;stroke: #EBEBEB;stroke-linecap: butt;"/>
<rect x="56.33" y="47.62" width="79.65" height="485.65" style="stroke-width: 1.07;stroke: none;stroke-linecap: butt;stroke-linejoin: miter;fill: #595959;"/>
<rect x="144.83" y="103.88" width="79.65" height="429.38" style="stroke-width: 1.07;stroke: none;stroke-linecap: butt;stroke-linejoin: miter;fill: #595959;"/>
<rect x="233.33" y="122.87" width="79.65" height="410.40" style="stroke-width: 1.07;stroke: none;stroke-linecap: butt;stroke-linejoin: miter;fill: #595959;"/>
<rect x="410.32" y="381.95" width="79.65" height="151.32" style="stroke-width: 1.07;stroke: none;stroke-linecap: butt;stroke-linejoin: miter;fill: #595959;"/>
<rect x="321.82" y="348.86" width="79.65" height="184.40" style="stroke-width: 1.07;stroke: none;stroke-linecap: butt;stroke-linejoin: miter;fill: #595959;"/>
<g><text x="98.06" y="47.01" style="font-family: Arial;font-size: 8.54px;" textLength="18.98px" lengthAdjust="spacingAndGlyphs">4169</text></g>
<g><text x="186.55" y="103.27" style="font-family: Arial;font-size: 8.54px;" textLength="18.98px" lengthAdjust="spacingAndGlyphs">3686</text></g>
<g><text x="275.05" y="122.26" style="font-family: Arial;font-size: 8.54px;" textLength="18.98px" lengthAdjust="spacingAndGlyphs">3523</text></g>
<g><text x="452.04" y="381.33" style="font-family: Arial;font-size: 8.54px;" textLength="18.98px" lengthAdjust="spacingAndGlyphs">1299</text></g>
<g><text x="363.55" y="348.25" style="font-family: Arial;font-size: 8.54px;" textLength="18.98px" lengthAdjust="spacingAndGlyphs">1583</text></g>
</g><g clip-path="url(#c51)">
<polyline points="551.78,502.98 1011.96,502.98" style="stroke-width: 0.53;stroke: #EBEBEB;stroke-linecap: butt;"/>
<polyline points="551.78,378.87 1011.96,378.87" style="stroke-width: 0.53;stroke: #EBEBEB;stroke-linecap: butt;"/>
<polyline points="551.78,254.76 1011.96,254.76" style="stroke-width: 0.53;stroke: #EBEBEB;stroke-linecap: butt;"/>
<polyline points="551.78,130.65 1011.96,130.65" style="stroke-width: 0.53;stroke: #EBEBEB;stroke-linecap: butt;"/>
<polyline points="641.69,557.55 641.69,23.34" style="stroke-width: 0.53;stroke: #EBEBEB;stroke-linecap: butt;"/>
<polyline points="754.75,557.55 754.75,23.34" style="stroke-width: 0.53;stroke: #EBEBEB;stroke-linecap: butt;"/>
<polyline points="867.82,557.55 867.82,23.34" style="stroke-width: 0.53;stroke: #EBEBEB;stroke-linecap: butt;"/>
<polyline points="980.89,557.55 980.89,23.34" style="stroke-width: 0.53;stroke: #EBEBEB;stroke-linecap: butt;"/>
<polyline points="551.78,440.93 1011.96,440.93" style="stroke-width: 1.07;stroke: #EBEBEB;stroke-linecap: butt;"/>
<polyline points="551.78,316.82 1011.96,316.82" style="stroke-width: 1.07;stroke: #EBEBEB;stroke-linecap: butt;"/>
<polyline points="551.78,192.70 1011.96,192.70" style="stroke-width: 1.07;stroke: #EBEBEB;stroke-linecap: butt;"/>
<polyline points="551.78,68.59 1011.96,68.59" style="stroke-width: 1.07;stroke: #EBEBEB;stroke-linecap: butt;"/>
<polyline points="585.15,557.55 585.15,23.34" style="stroke-width: 1.07;stroke: #EBEBEB;stroke-linecap: butt;"/>
<polyline points="698.22,557.55 698.22,23.34" style="stroke-width: 1.07;stroke: #EBEBEB;stroke-linecap: butt;"/>
<polyline points="811.29,557.55 811.29,23.34" style="stroke-width: 1.07;stroke: #EBEBEB;stroke-linecap: butt;"/>
<polyline points="924.36,557.55 924.36,23.34" style="stroke-width: 1.07;stroke: #EBEBEB;stroke-linecap: butt;"/>
<circle cx="991.05" cy="47.62" r="1.95" style="stroke-width: 0.71;stroke: #595959;fill: #595959;"/>
<circle cx="748.48" cy="107.56" r="1.95" style="stroke-width: 0.71;stroke: #595959;fill: #595959;"/>
<circle cx="722.25" cy="127.79" r="1.95" style="stroke-width: 0.71;stroke: #595959;fill: #595959;"/>
<circle cx="628.87" cy="403.82" r="1.95" style="stroke-width: 0.71;stroke: #595959;fill: #595959;"/>
<circle cx="572.70" cy="368.57" r="1.95" style="stroke-width: 0.71;stroke: #595959;fill: #595959;"/>
<polyline points="572.70,368.57 577.99,370.67 583.29,373.54 588.58,376.99 593.88,380.85 599.18,384.94 604.47,389.08 609.77,393.10 615.06,396.82 620.36,400.06 625.65,402.64 630.95,404.06 636.24,401.09 641.54,393.49 646.84,381.84 652.13,366.75 657.43,348.81 662.72,328.61 668.02,306.76 673.31,283.85 678.61,260.48 683.90,237.24 689.20,214.73 694.50,193.54 699.79,174.29 705.09,157.55 710.38,143.93 715.68,134.02 720.97,128.43 726.27,125.60 731.56,121.28 736.86,116.24 742.16,111.48 747.45,108.01 752.75,105.93 758.04,103.94 763.34,101.98 768.63,100.05 773.93,98.16 779.22,96.30 784.52,94.48 789.82,92.69 795.11,90.93 800.41,89.21 805.70,87.52 811.00,85.87 816.29,84.25 821.59,82.66 826.88,81.10 832.18,79.57 837.48,78.08 842.77,76.62 848.07,75.19 853.36,73.79 858.66,72.42 863.95,71.08 869.25,69.77 874.54,68.50 879.84,67.25 885.14,66.03 890.43,64.85 895.73,63.69 901.02,62.56 906.32,61.46 911.61,60.39 916.91,59.35 922.20,58.33 927.50,57.35 932.79,56.39 938.09,55.46 943.39,54.55 948.68,53.68 953.98,52.83 959.27,52.00 964.57,51.21 969.86,50.44 975.16,49.70 980.45,48.98 985.75,48.29 991.05,47.62" style="stroke-width: 2.13;stroke: #595959;stroke-linecap: butt;"/>
<circle cx="991.05" cy="471.34" r="1.95" style="stroke-width: 0.71;fill: #000000;"/>
<circle cx="748.48" cy="484.24" r="1.95" style="stroke-width: 0.71;fill: #000000;"/>
<circle cx="722.25" cy="484.49" r="1.95" style="stroke-width: 0.71;fill: #000000;"/>
<circle cx="628.87" cy="529.67" r="1.95" style="stroke-width: 0.71;fill: #000000;"/>
<circle cx="572.70" cy="533.27" r="1.95" style="stroke-width: 0.71;fill: #000000;"/>
<polyline points="572.70,533.27 577.99,533.05 583.29,532.76 588.58,532.41 593.88,532.01 599.18,531.60 604.47,531.17 609.77,530.76 615.06,530.38 620.36,530.05 625.65,529.79 630.95,529.54 636.24,528.67 641.54,527.10 646.84,524.93 652.13,522.25 657.43,519.16 662.72,515.76 668.02,512.13 673.31,508.37 678.61,504.58 683.90,500.85 689.20,497.28 694.50,493.97 699.79,491.00 705.09,488.48 710.38,486.49 715.68,485.14 720.97,484.52 726.27,484.46 731.56,484.41 736.86,484.35 742.16,484.29 747.45,484.25 752.75,484.21 758.04,484.15 763.34,484.06 768.63,483.95 773.93,483.81 779.22,483.65 784.52,483.47 789.82,483.27 795.11,483.04 800.41,482.80 805.70,482.54 811.00,482.27 816.29,481.98 821.59,481.67 826.88,481.36 832.18,481.03 837.48,480.69 842.77,480.34 848.07,479.98 853.36,479.62 858.66,479.24 863.95,478.87 869.25,478.49 874.54,478.11 879.84,477.72 885.14,477.34 890.43,476.96 895.73,476.58 901.02,476.20 906.32,475.82 911.61,475.45 916.91,475.09 922.20,474.74 927.50,474.39 932.79,474.06 938.09,473.73 943.39,473.42 948.68,473.12 953.98,472.83 959.27,472.56 964.57,472.31 969.86,472.08 975.16,471.86 980.45,471.66 985.75,471.49 991.05,471.34" style="stroke-width: 2.13;stroke-linecap: butt;"/>
<circle cx="991.05" cy="304.16" r="1.95" style="stroke-width: 0.71;stroke: #A6A6A6;fill: #A6A6A6;"/>
<circle cx="748.48" cy="331.59" r="1.95" style="stroke-width: 0.71;stroke: #A6A6A6;fill: #A6A6A6;"/>
<circle cx="722.25" cy="343.62" r="1.95" style="stroke-width: 0.71;stroke: #A6A6A6;fill: #A6A6A6;"/>
<circle cx="628.87" cy="477.67" r="1.95" style="stroke-width: 0.71;stroke: #A6A6A6;fill: #A6A6A6;"/>
<circle cx="572.70" cy="463.52" r="1.95" style="stroke-width: 0.71;stroke: #A6A6A6;fill: #A6A6A6;"/>
<polyline points="572.70,463.52 577.99,464.36 583.29,465.51 588.58,466.90 593.88,468.44 599.18,470.09 604.47,471.75 609.77,473.36 615.06,474.85 620.36,476.16 625.65,477.19 630.95,477.73 636.24,476.20 641.54,472.46 646.84,466.80 652.13,459.50 657.43,450.84 662.72,441.11 668.02,430.59 673.31,419.55 678.61,408.29 683.90,397.09 689.20,386.22 694.50,375.98 699.79,366.64 705.09,358.49 710.38,351.81 715.68,346.88 720.97,343.99 726.27,342.32 731.56,339.75 736.86,336.75 742.16,333.92 747.45,331.85 752.75,330.62 758.04,329.46 763.34,328.33 768.63,327.25 773.93,326.20 779.22,325.19 784.52,324.21 789.82,323.27 795.11,322.36 800.41,321.49 805.70,320.64 811.00,319.83 816.29,319.05 821.59,318.30 826.88,317.57 832.18,316.87 837.48,316.20 842.77,315.56 848.07,314.94 853.36,314.34 858.66,313.76 863.95,313.21 869.25,312.68 874.54,312.17 879.84,311.68 885.14,311.20 890.43,310.74 895.73,310.30 901.02,309.88 906.32,309.47 911.61,309.07 916.91,308.69 922.20,308.32 927.50,307.96 932.79,307.61 938.09,307.26 943.39,306.93 948.68,306.61 953.98,306.29 959.27,305.97 964.57,305.66 969.86,305.36 975.16,305.06 980.45,304.76 985.75,304.46 991.05,304.16" style="stroke-width: 2.13;stroke: #A6A6A6;stroke-linecap: butt;"/>
<g><text x="992.75" y="47.01" style="font-family: Arial;font-size: 8.54px;fill: #595959;" textLength="17.06px" lengthAdjust="spacingAndGlyphs">SVP</text></g>
<g><text x="749.62" y="106.95" style="font-family: Arial;font-size: 8.54px;fill: #595959;" textLength="11.38px" lengthAdjust="spacingAndGlyphs">SP</text></g>
<g><text x="723.95" y="127.18" style="font-family: Arial;font-size: 8.54px;fill: #595959;" textLength="17.06px" lengthAdjust="spacingAndGlyphs">FDP</text></g>
<g><text x="630.67" y="403.21" style="font-family: Arial;font-size: 8.54px;fill: #595959;" textLength="18.01px" lengthAdjust="spacingAndGlyphs">GPS</text></g>
<g><text x="573.84" y="367.96" style="font-family: Arial;font-size: 8.54px;fill: #595959;" textLength="11.38px" lengthAdjust="spacingAndGlyphs">glp</text></g>
</g><g clip-path="url(#c54)">
<g><text transform="translate(100.62,566.94) rotate(-45.00)" text-anchor="end" style="font-family: Arial;font-size: 8.80px;fill: #4D4D4D;" textLength="17.60px" lengthAdjust="spacingAndGlyphs">SVP</text></g>
<g><text transform="translate(189.11,566.94) rotate(-45.00)" text-anchor="end" style="font-family: Arial;font-size: 8.80px;fill: #4D4D4D;" textLength="11.74px" lengthAdjust="spacingAndGlyphs">SP</text></g>
<g><text transform="translate(277.61,566.94) rotate(-45.00)" text-anchor="end" style="font-family: Arial;font-size: 8.80px;fill: #4D4D4D;" textLength="17.59px" lengthAdjust="spacingAndGlyphs">FDP</text></g>
<g><text transform="translate(366.11,566.94) rotate(-45.00)" text-anchor="end" style="font-family: Arial;font-size: 8.80px;fill: #4D4D4D;" textLength="11.74px" lengthAdjust="spacingAndGlyphs">glp</text></g>
<g><text transform="translate(454.60,566.94) rotate(-45.00)" text-anchor="end" style="font-family: Arial;font-size: 8.80px;fill: #4D4D4D;" textLength="18.58px" lengthAdjust="spacingAndGlyphs">GPS</text></g>
</g><g clip-path="url(#c56)">
<g><text x="273.15" y="592.09" text-anchor="middle" style="font-family: Arial;font-size: 11.00px;" textLength="25.68px" lengthAdjust="spacingAndGlyphs">Party</text></g>
</g><g clip-path="url(#c64)">
<g><text x="585.15" y="568.79" text-anchor="middle" style="font-family: Arial;font-size: 8.80px;fill: #4D4D4D;" textLength="34.27px" lengthAdjust="spacingAndGlyphs">1000000</text></g>
<g><text x="698.22" y="568.79" text-anchor="middle" style="font-family: Arial;font-size: 8.80px;fill: #4D4D4D;" textLength="34.27px" lengthAdjust="spacingAndGlyphs">2000000</text></g>
<g><text x="811.29" y="568.79" text-anchor="middle" style="font-family: Arial;font-size: 8.80px;fill: #4D4D4D;" textLength="34.27px" lengthAdjust="spacingAndGlyphs">3000000</text></g>
<g><text x="924.36" y="568.79" text-anchor="middle" style="font-family: Arial;font-size: 8.80px;fill: #4D4D4D;" textLength="34.27px" lengthAdjust="spacingAndGlyphs">4000000</text></g>
</g><g clip-path="url(#c66)">
<g><text x="781.87" y="581.37" text-anchor="middle" style="font-family: Arial;font-size: 11.00px;" textLength="133.31px" lengthAdjust="spacingAndGlyphs">Earnings of national parties</text></g>
</g><g clip-path="url(#c90)">
<circle cx="1037.04" cy="281.06" r="1.95" style="stroke-width: 0.71;fill: #000000;"/>
<rect x="1028.40" y="272.42" width="17.28" height="17.28" style="stroke-width: 0.75;stroke: none;fill: #999999;fill-opacity: 0.40;"/>
<line x1="1030.13" y1="281.06" x2="1043.95" y2="281.06" style="stroke-width: 2.13;stroke-linecap: butt;"/>
<circle cx="1037.04" cy="281.06" r="1.95" style="stroke-width: 0.71;fill: #000000;"/>
<rect x="1028.40" y="272.42" width="17.28" height="17.28" style="stroke-width: 0.75;stroke: none;fill: #999999;fill-opacity: 0.40;"/>
<line x1="1030.13" y1="281.06" x2="1043.95" y2="281.06" style="stroke-width: 2.13;stroke-linecap: butt;"/>
<circle cx="1037.04" cy="281.06" r="1.95" style="stroke-width: 0.71;fill: #000000;"/>
<rect x="1028.40" y="272.42" width="17.28" height="17.28" style="stroke-width: 0.75;stroke: none;fill: #999999;fill-opacity: 0.40;"/>
<line x1="1030.13" y1="281.06" x2="1043.95" y2="281.06" style="stroke-width: 2.13;stroke-linecap: butt;"/>
<g><text x="1037.04" y="284.12" text-anchor="middle" style="font-family: Arial;font-size: 8.54px;" textLength="4.74px" lengthAdjust="spacingAndGlyphs">a</text></g>
<circle cx="1037.04" cy="298.34" r="1.95" style="stroke-width: 0.71;stroke: #A6A6A6;fill: #A6A6A6;"/>
<rect x="1028.40" y="289.70" width="17.28" height="17.28" style="stroke-width: 0.75;stroke: none;fill: #999999;fill-opacity: 0.40;"/>
<line x1="1030.13" y1="298.34" x2="1043.95" y2="298.34" style="stroke-width: 2.13;stroke: #A6A6A6;stroke-linecap: butt;"/>
<circle cx="1037.04" cy="298.34" r="1.95" style="stroke-width: 0.71;stroke: #A6A6A6;fill: #A6A6A6;"/>
<rect x="1028.40" y="289.70" width="17.28" height="17.28" style="stroke-width: 0.75;stroke: none;fill: #999999;fill-opacity: 0.40;"/>
<line x1="1030.13" y1="298.34" x2="1043.95" y2="298.34" style="stroke-width: 2.13;stroke: #A6A6A6;stroke-linecap: butt;"/>
<circle cx="1037.04" cy="298.34" r="1.95" style="stroke-width: 0.71;stroke: #A6A6A6;fill: #A6A6A6;"/>
<rect x="1028.40" y="289.70" width="17.28" height="17.28" style="stroke-width: 0.75;stroke: none;fill: #999999;fill-opacity: 0.40;"/>
<line x1="1030.13" y1="298.34" x2="1043.95" y2="298.34" style="stroke-width: 2.13;stroke: #A6A6A6;stroke-linecap: butt;"/>
<g><text x="1037.04" y="301.40" text-anchor="middle" style="font-family: Arial;font-size: 8.54px;fill: #A6A6A6;" textLength="4.74px" lengthAdjust="spacingAndGlyphs">a</text></g>
<circle cx="1037.04" cy="315.62" r="1.95" style="stroke-width: 0.71;stroke: #595959;fill: #595959;"/>
<rect x="1028.40" y="306.98" width="17.28" height="17.28" style="stroke-width: 0.75;stroke: none;fill: #999999;fill-opacity: 0.40;"/>
<line x1="1030.13" y1="315.62" x2="1043.95" y2="315.62" style="stroke-width: 2.13;stroke: #595959;stroke-linecap: butt;"/>
<circle cx="1037.04" cy="315.62" r="1.95" style="stroke-width: 0.71;stroke: #595959;fill: #595959;"/>
<rect x="1028.40" y="306.98" width="17.28" height="17.28" style="stroke-width: 0.75;stroke: none;fill: #999999;fill-opacity: 0.40;"/>
<line x1="1030.13" y1="315.62" x2="1043.95" y2="315.62" style="stroke-width: 2.13;stroke: #595959;stroke-linecap: butt;"/>
<circle cx="1037.04" cy="315.62" r="1.95" style="stroke-width: 0.71;stroke: #595959;fill: #595959;"/>
<rect x="1028.40" y="306.98" width="17.28" height="17.28" style="stroke-width: 0.75;stroke: none;fill: #999999;fill-opacity: 0.40;"/>
<line x1="1030.13" y1="315.62" x2="1043.95" y2="315.62" style="stroke-width: 2.13;stroke: #595959;stroke-linecap: butt;"/>
<g><text x="1037.04" y="318.68" text-anchor="middle" style="font-family: Arial;font-size: 8.54px;fill: #595959;" textLength="4.74px" lengthAdjust="spacingAndGlyphs">a</text></g>
<g><text x="1051.16" y="284.22" style="font-family: Arial;font-size: 8.80px;" textLength="133.48px" lengthAdjust="spacingAndGlyphs">Occurrences within 1 month of ED</text></g>
<g><text x="1051.16" y="301.50" style="font-family: Arial;font-size: 8.80px;" textLength="137.88px" lengthAdjust="spacingAndGlyphs">Occurrences within 3 months of ED</text></g>
<g><text x="1051.16" y="318.78" style="font-family: Arial;font-size: 8.80px;" textLength="137.88px" lengthAdjust="spacingAndGlyphs">Occurrences within 6 months of ED</text></g>
</g>
</svg>