<svg xmlns="http://www.w3.org/2000/svg" xmlns:xlink="http://www.w3.org/1999/xlink" class="httpgd" width="1200.00" height="600.00" viewBox="0 0 1200.00 600.00">
<defs>
  <style type='text/css'><![CDATA[
    .httpgd line, .httpgd polyline, .httpgd polygon, .httpgd path, .httpgd rect, .httpgd circle {
      fill: none;
      stroke: #000000;
      stroke-linecap: round;
      stroke-linejoin: round;
      stroke-miterlimit: 10.00;
    }
  ]]></style>
<clipPath id="c0"><rect x="0.00" y="0.00" width="1200.00" height="600.00"/></clipPath>
<clipPath id="c1"><rect x="0.00" y="0.00" width="43.06" height="23.34"/></clipPath>
<clipPath id="c2"><rect x="0.00" y="0.00" width="1200.00" height="600.00"/></clipPath>
<clipPath id="c3"><rect x="508.72" y="0.00" width="43.06" height="23.34"/></clipPath>
<clipPath id="c4"><rect x="0.00" y="0.00" width="1200.00" height="600.00"/></clipPath>
<clipPath id="c5"><rect x="0.00" y="23.34" width="43.06" height="534.21"/></clipPath>
<clipPath id="c6"><rect x="0.00" y="0.00" width="1200.00" height="600.00"/></clipPath>
<clipPath id="c7"><rect x="0.00" y="23.34" width="43.06" height="534.21"/></clipPath>
<clipPath id="c8"><rect x="0.00" y="0.00" width="1200.00" height="600.00"/></clipPath>
<clipPath id="c9"><rect x="0.00" y="23.34" width="43.06" height="534.21"/></clipPath>
<clipPath id="c10"><rect x="-0.00" y="23.34" width="0.00" height="534.21"/></clipPath>
<clipPath id="c11"><rect x="0.00" y="23.34" width="43.06" height="534.21"/></clipPath>
<clipPath id="c12"><rect x="0.00" y="0.00" width="1200.00" height="600.00"/></clipPath>
<clipPath id="c13"><rect x="508.72" y="23.34" width="43.06" height="534.21"/></clipPath>
<clipPath id="c14"><rect x="0.00" y="0.00" width="1200.00" height="600.00"/></clipPath>
<clipPath id="c15"><rect x="508.72" y="23.34" width="43.06" height="534.21"/></clipPath>
<clipPath id="c16"><rect x="0.00" y="0.00" width="1200.00" height="600.00"/></clipPath>
<clipPath id="c17"><rect x="508.72" y="23.34" width="43.06" height="534.21"/></clipPath>
<clipPath id="c18"><rect x="508.72" y="23.34" width="0.00" height="534.21"/></clipPath>
<clipPath id="c19"><rect x="508.72" y="23.34" width="43.06" height="534.21"/></clipPath>
<clipPath id="c20"><rect x="0.00" y="0.00" width="1200.00" height="600.00"/></clipPath>
<clipPath id="c21"><rect x="0.00" y="557.55" width="43.06" height="42.45"/></clipPath>
<clipPath id="c22"><rect x="0.00" y="0.00" width="1200.00" height="600.00"/></clipPath>
<clipPath id="c23"><rect x="508.72" y="557.55" width="43.06" height="42.45"/></clipPath>
<clipPath id="c24"><rect x="0.00" y="0.00" width="1200.00" height="600.00"/></clipPath>
<clipPath id="c25"><rect x="43.06" y="0.00" width="460.18" height="23.34"/></clipPath>
<clipPath id="c26"><rect x="0.00" y="0.00" width="1200.00" height="600.00"/></clipPath>
<clipPath id="c27"><rect x="43.06" y="0.00" width="460.18" height="23.34"/></clipPath>
<clipPath id="c28"><rect x="0.00" y="0.00" width="1200.00" height="600.00"/></clipPath>
<clipPath id="c29"><rect x="43.06" y="0.00" width="460.18" height="23.34"/></clipPath>
<clipPath id="c30"><rect x="0.00" y="0.00" width="1200.00" height="600.00"/></clipPath>
<clipPath id="c31"><rect x="43.06" y="0.00" width="460.18" height="23.34"/></clipPath>
<clipPath id="c32"><rect x="0.00" y="0.00" width="1200.00" height="600.00"/></clipPath>
<clipPath id="c33"><rect x="43.06" y="0.00" width="460.18" height="23.34"/></clipPath>
<clipPath id="c34"><rect x="43.06" y="0.00" width="460.18" height="0.00"/></clipPath>
<clipPath id="c35"><rect x="43.06" y="0.00" width="460.18" height="23.34"/></clipPath>
<clipPath id="c36"><rect x="0.00" y="0.00" width="1200.00" height="600.00"/></clipPath>
<clipPath id="c37"><rect x="551.78" y="0.00" width="460.18" height="23.34"/></clipPath>
<clipPath id="c38"><rect x="0.00" y="0.00" width="1200.00" height="600.00"/></clipPath>
<clipPath id="c39"><rect x="551.78" y="0.00" width="460.18" height="23.34"/></clipPath>
<clipPath id="c40"><rect x="0.00" y="0.00" width="1200.00" height="600.00"/></clipPath>
<clipPath id="c41"><rect x="551.78" y="0.00" width="460.18" height="23.34"/></clipPath>
<clipPath id="c42"><rect x="0.00" y="0.00" width="1200.00" height="600.00"/></clipPath>
<clipPath id="c43"><rect x="551.78" y="0.00" width="460.18" height="23.34"/></clipPath>
<clipPath id="c44"><rect x="0.00" y="0.00" width="1200.00" height="600.00"/></clipPath>
<clipPath id="c45"><rect x="551.78" y="0.00" width="460.18" height="23.34"/></clipPath>
<clipPath id="c46"><rect x="551.78" y="0.00" width="460.18" height="0.00"/></clipPath>
<clipPath id="c47"><rect x="551.78" y="0.00" width="460.18" height="23.34"/></clipPath>
<clipPath id="c48"><rect x="0.00" y="0.00" width="1200.00" height="600.00"/></clipPath>
<clipPath id="c49"><rect x="43.06" y="23.34" width="460.18" height="534.21"/></clipPath>
<clipPath id="c50"><rect x="0.00" y="0.00" width="1200.00" height="600.00"/></clipPath>
<clipPath id="c51"><rect x="551.78" y="23.34" width="460.18" height="534.21"/></clipPath>
<clipPath id="c52"><rect x="0.00" y="0.00" width="1200.00" height="600.00"/></clipPath>
<clipPath id="c53"><rect x="43.06" y="557.55" width="460.18" height="42.45"/></clipPath>
<clipPath id="c54"><rect x="0.00" y="0.00" width="1200.00" height="600.00"/></clipPath>
<clipPath id="c55"><rect x="43.06" y="557.55" width="460.18" height="42.45"/></clipPath>
<clipPath id="c56"><rect x="0.00" y="0.00" width="1200.00" height="600.00"/></clipPath>
<clipPath id="c57"><rect x="43.06" y="557.55" width="460.18" height="42.45"/></clipPath>
<clipPath id="c58"><rect x="0.00" y="0.00" width="1200.00" height="600.00"/></clipPath>
<clipPath id="c59"><rect x="43.06" y="557.55" width="460.18" height="42.45"/></clipPath>
<clipPath id="c60"><rect x="43.06" y="600.00" width="460.18" height="0.00"/></clipPath>
<clipPath id="c61"><rect x="43.06" y="557.55" width="460.18" height="42.45"/></clipPath>
<clipPath id="c62"><rect x="0.00" y="0.00" width="1200.00" height="600.00"/></clipPath>
<clipPath id="c63"><rect x="551.78" y="557.55" width="460.18" height="42.45"/></clipPath>
<clipPath id="c64"><rect x="0.00" y="0.00" width="1200.00" height="600.00"/></clipPath>
<clipPath id="c65"><rect x="551.78" y="557.55" width="460.18" height="42.45"/></clipPath>
<clipPath id="c66"><rect x="0.00" y="0.00" width="1200.00" height="600.00"/></clipPath>
<clipPath id="c67"><rect x="551.78" y="557.55" width="460.18" height="42.45"/></clipPath>
<clipPath id="c68"><rect x="0.00" y="0.00" width="1200.00" height="600.00"/></clipPath>
<clipPath id="c69"><rect x="551.78" y="557.55" width="460.18" height="42.45"/></clipPath>
<clipPath id="c70"><rect x="551.78" y="589.28" width="460.18" height="10.72"/></clipPath>
<clipPath id="c71"><rect x="551.78" y="557.55" width="460.18" height="42.45"/></clipPath>
<clipPath id="c72"><rect x="0.00" y="0.00" width="1200.00" height="600.00"/></clipPath>
<clipPath id="c73"><rect x="503.24" y="0.00" width="5.48" height="23.34"/></clipPath>
<clipPath id="c74"><rect x="0.00" y="0.00" width="1200.00" height="600.00"/></clipPath>
<clipPath id="c75"><rect x="1011.96" y="0.00" width="188.04" height="23.34"/></clipPath>
<clipPath id="c76"><rect x="0.00" y="0.00" width="1200.00" height="600.00"/></clipPath>
<clipPath id="c77"><rect x="503.24" y="23.34" width="5.48" height="534.21"/></clipPath>
<clipPath id="c78"><rect x="0.00" y="0.00" width="1200.00" height="600.00"/></clipPath>
<clipPath id="c79"><rect x="503.24" y="23.34" width="5.48" height="534.21"/></clipPath>
<clipPath id="c80"><rect x="0.00" y="0.00" width="1200.00" height="600.00"/></clipPath>
<clipPath id="c81"><rect x="503.24" y="23.34" width="5.48" height="534.21"/></clipPath>
<clipPath id="c82"><rect x="508.72" y="23.34" width="0.00" height="534.21"/></clipPath>
<clipPath id="c83"><rect x="503.24" y="23.34" width="5.48" height="534.21"/></clipPath>
<clipPath id="c84"><rect x="0.00" y="0.00" width="1200.00" height="600.00"/></clipPath>
<clipPath id="c85"><rect x="1011.96" y="23.34" width="188.04" height="534.21"/></clipPath>
<clipPath id="c86"><rect x="0.00" y="0.00" width="1200.00" height="600.00"/></clipPath>
<clipPath id="c87"><rect x="1011.96" y="23.34" width="188.04" height="534.21"/></clipPath>
<clipPath id="c88"><rect x="0.00" y="0.00" width="1200.00" height="600.00"/></clipPath>
<clipPath id="c89"><rect x="1011.96" y="23.34" width="188.04" height="534.21"/></clipPath>
<clipPath id="c90"><rect x="0.00" y="0.00" width="1200.00" height="600.00"/></clipPath>
<clipPath id="c91"><rect x="1011.96" y="23.34" width="188.04" height="534.21"/></clipPath>
<clipPath id="c92"><rect x="1200.00" y="23.34" width="0.00" height="534.21"/></clipPath>
<clipPath id="c93"><rect x="1011.96" y="23.34" width="188.04" height="534.21"/></clipPath>
<clipPath id="c94"><rect x="0.00" y="0.00" width="1200.00" height="600.00"/></clipPath>
<clipPath id="c95"><rect x="503.24" y="557.55" width="5.48" height="42.45"/></clipPath>
<clipPath id="c96"><rect x="0.00" y="0.00" width="1200.00" height="600.00"/></clipPath>
<clipPath id="c97"><rect x="1011.96" y="557.55" width="188.04" height="42.45"/></clipPath>
<clipPath id="c98"><rect x="0.00" y="0.00" width="1200.00" height="600.00"/></clipPath>
</defs>
<rect width="100%" height="100%" style="stroke: none;fill: #FFFFFF;"/>
<g clip-path="url(#c0)">
</g><g clip-path="url(#c6)">
<g><text x="38.13" y="536.42" text-anchor="end" style="font-family: Arial;font-size: 8.80px;fill: #4D4D4D;" textLength="4.90px" lengthAdjust="spacingAndGlyphs">0</text></g>
<g><text x="38.13" y="419.93" text-anchor="end" style="font-family: Arial;font-size: 8.80px;fill: #4D4D4D;" textLength="19.58px" lengthAdjust="spacingAndGlyphs">1000</text></g>
<g><text x="38.13" y="303.44" text-anchor="end" style="font-family: Arial;font-size: 8.80px;fill: #4D4D4D;" textLength="19.58px" lengthAdjust="spacingAndGlyphs">2000</text></g>
<g><text x="38.13" y="186.95" text-anchor="end" style="font-family: Arial;font-size: 8.80px;fill: #4D4D4D;" textLength="19.58px" lengthAdjust="spacingAndGlyphs">3000</text></g>
<g><text x="38.13" y="70.46" text-anchor="end" style="font-family: Arial;font-size: 8.80px;fill: #4D4D4D;" textLength="19.58px" lengthAdjust="spacingAndGlyphs">4000</text></g>
</g><g clip-path="url(#c8)">
<g><text transform="translate(13.37,290.44) rotate(-90.00)" text-anchor="middle" style="font-family: Arial;font-size: 11.00px;" textLength="107.00px" lengthAdjust="spacingAndGlyphs">Occurrences in media</text></g>
</g><g clip-path="url(#c14)">
<g><text x="546.85" y="444.08" text-anchor="end" style="font-family: Arial;font-size: 8.80px;fill: #4D4D4D;" textLength="19.58px" lengthAdjust="spacingAndGlyphs">1000</text></g>
<g><text x="546.85" y="319.97" text-anchor="end" style="font-family: Arial;font-size: 8.80px;fill: #4D4D4D;" textLength="19.58px" lengthAdjust="spacingAndGlyphs">2000</text></g>
<g><text x="546.85" y="195.86" text-anchor="end" style="font-family: Arial;font-size: 8.80px;fill: #4D4D4D;" textLength="19.58px" lengthAdjust="spacingAndGlyphs">3000</text></g>
<g><text x="546.85" y="71.75" text-anchor="end" style="font-family: Arial;font-size: 8.80px;fill: #4D4D4D;" textLength="19.58px" lengthAdjust="spacingAndGlyphs">4000</text></g>
</g><g clip-path="url(#c16)">
<g><text transform="translate(522.09,290.44) rotate(-90.00)" text-anchor="middle" style="font-family: Arial;font-size: 11.00px;" textLength="107.00px" lengthAdjust="spacingAndGlyphs">Occurrences in media</text></g>
</g><g clip-path="url(#c32)">
<g><text x="43.06" y="14.94" style="font-family: Arial;font-size: 13.20px;" textLength="260.27px" lengthAdjust="spacingAndGlyphs">Occurrences in media within 6 months of ED</text></g>
</g><g clip-path="url(#c44)">
<g><text x="551.78" y="14.94" style="font-family: Arial;font-size: 13.20px;" textLength="200.88px" lengthAdjust="spacingAndGlyphs">Earnings vs Occurrences in media</text></g>
</g><g clip-path="url(#c49)">
<polyline points="43.06,475.02 503.24,475.02" style="stroke-width: 0.53;stroke: #EBEBEB;stroke-linecap: butt;"/>
<polyline points="43.06,358.53 503.24,358.53" style="stroke-width: 0.53;stroke: #EBEBEB;stroke-linecap: butt;"/>
<polyline points="43.06,242.04 503.24,242.04" style="stroke-width: 0.53;stroke: #EBEBEB;stroke-linecap: butt;"/>
<polyline points="43.06,125.55 503.24,125.55" style="stroke-width: 0.53;stroke: #EBEBEB;stroke-linecap: butt;"/>
<polyline points="43.06,533.27 503.24,533.27" style="stroke-width: 1.07;stroke: #EBEBEB;stroke-linecap: butt;"/>
<polyline points="43.06,416.78 503.24,416.78" style="stroke-width: 1.07;stroke: #EBEBEB;stroke-linecap: butt;"/>
<polyline points="43.06,300.29 503.24,300.29" style="stroke-width: 1.07;stroke: #EBEBEB;stroke-linecap: butt;"/>
<polyline points="43.06,183.80 503.24,183.80" style="stroke-width: 1.07;stroke: #EBEBEB;stroke-linecap: butt;"/>
<polyline points="43.06,67.31 503.24,67.31" style="stroke-width: 1.07;stroke: #EBEBEB;stroke-linecap: butt;"/>
<polyline points="96.16,557.55 96.16,23.34" style="stroke-width: 1.07;stroke: #EBEBEB;stroke-linecap: butt;"/>
<polyline points="184.65,557.55 184.65,23.34" style="stroke-width: 1.07;stroke: #EBEBEB;stroke-linecap: butt;"/>
<polyline points="273.15,557.55 273.15,23.34" style="stroke-width: 1.07;stroke: #EBEBEB;stroke-linecap: butt;"/>
<polyline points="361.65,557.55 361.65,23.34" style="stroke-width: 1.07;stroke: #EBEBEB;stroke-linecap: butt;"/>
<polyline points="450.14,557.55 450.14,23.34" style="stroke-width: 1.07;stroke: #EBEBEB;stroke-linecap: butt;"/>
<rect x="56.33" y="47.62" width="79.65" height="485.65" style="stroke-width: 1.07;stroke: none;stroke-linecap: butt;stroke-linejoin: miter;fill: #595959;"/>
<rect x="144.83" y="103.88" width="79.65" height="429.38" style="stroke-width: 1.07;stroke: none;stroke-linecap: butt;stroke-linejoin: miter;fill: #595959;"/>
<rect x="233.33" y="122.87" width="79.65" height="410.40" style="stroke-width: 1.07;stroke: none;stroke-linecap: butt;stroke-linejoin: miter;fill: #595959;"/>
<rect x="410.32" y="381.95" width="79.65" height="151.32" style="stroke-width: 1.07;stroke: none;stroke-linecap: butt;stroke-linejoin: miter;fill: #595959;"/>
<rect x="321.82" y="348.86" width="79.65" height="184.40" style="stroke-width: 1.07;stroke: none;stroke-linecap: butt;stroke-linejoin: miter;fill: #595959;"/>
<g><text x="98.06" y="47.01" style="font-family: Arial;font-size: 8.54px;" textLength="18.98px" lengthAdjust="spacingAndGlyphs">4169</text></g>
<g><text x="186.55" y="103.27" style="font-family: Arial;font-size: 8.54px;" textLength="18.98px" lengthAdjust="spacingAndGlyphs">3686</text></g>
<g><text x="275.05" y="122.26" style="font-family: Arial;font-size: 8.54px;" textLength="18.98px" lengthAdjust="spacingAndGlyphs">3523</text></g>
<g><text x="452.04" y="381.33" style="font-family: Arial;font-size: 8.54px;" textLength="18.98px" lengthAdjust="spacingAndGlyphs">1299</text></g>
<g><text x="363.55" y="348.25" style="font-family: Arial;font-size: 8.54px;" textLength="18.98px" lengthAdjust="spacingAndGlyphs">1583</text></g>
</g><g clip-path="url(#c51)">
<polyline points="551.78,502.98 1011.96,502.98" style="stroke-width: 0.53;stroke: #EBEBEB;stroke-linecap: butt;"/>
<polyline points="551.78,378.87 1011.96,378.87" style="stroke-width: 0.53;stroke: #EBEBEB;stroke-linecap: butt;"/>
<polyline points="551.78,254.76 1011.96,254.76" style="stroke-width: 0.53;stroke: #EBEBEB;stroke-linecap: butt;"/>
<polyline points="551.78,130.65 1011.96,130.65" style="stroke-width: 0.53;stroke: #EBEBEB;stroke-linecap: butt;"/>
<polyline points="585.75,557.55 585.75,23.34" style="stroke-width: 0.53;stroke: #EBEBEB;stroke-linecap: butt;"/>
<polyline points="713.25,557.55 713.25,23.34" style="stroke-width: 0.53;stroke: #EBEBEB;stroke-linecap: butt;"/>
<polyline points="840.76,557.55 840.76,23.34" style="stroke-width: 0.53;stroke: #EBEBEB;stroke-linecap: butt;"/>
<polyline points="968.26,557.55 968.26,23.34" style="stroke-width: 0.53;stroke: #EBEBEB;stroke-linecap: butt;"/>
<polyline points="551.78,440.93 1011.96,440.93" style="stroke-width: 1.07;stroke: #EBEBEB;stroke-linecap: butt;"/>
<polyline points="551.78,316.82 1011.96,316.82" style="stroke-width: 1.07;stroke: #EBEBEB;stroke-linecap: butt;"/>
<polyline points="551.78,192.70 1011.96,192.70" style="stroke-width: 1.07;stroke: #EBEBEB;stroke-linecap: butt;"/>
<polyline points="551.78,68.59 1011.96,68.59" style="stroke-width: 1.07;stroke: #EBEBEB;stroke-linecap: butt;"/>
<polyline points="649.50,557.55 649.50,23.34" style="stroke-width: 1.07;stroke: #EBEBEB;stroke-linecap: butt;"/>
<polyline points="777.00,557.55 777.00,23.34" style="stroke-width: 1.07;stroke: #EBEBEB;stroke-linecap: butt;"/>
<polyline points="904.51,557.55 904.51,23.34" style="stroke-width: 1.07;stroke: #EBEBEB;stroke-linecap: butt;"/>
<circle cx="991.05" cy="47.62" r="1.95" style="stroke-width: 0.71;stroke: #595959;fill: #595959;"/>
<circle cx="830.39" cy="107.56" r="1.95" style="stroke-width: 0.71;stroke: #595959;fill: #595959;"/>
<circle cx="804.96" cy="127.79" r="1.95" style="stroke-width: 0.71;stroke: #595959;fill: #595959;"/>
<circle cx="685.81" cy="403.82" r="1.95" style="stroke-width: 0.71;stroke: #595959;fill: #595959;"/>
<circle cx="572.70" cy="368.57" r="1.95" style="stroke-width: 0.71;stroke: #595959;fill: #595959;"/>
<polyline points="572.70,368.57 577.99,369.51 583.29,370.66 588.58,371.99 593.88,373.49 599.18,375.14 604.47,376.91 609.77,378.78 615.06,380.74 620.36,382.75 625.65,384.79 630.95,386.85 636.24,388.91 641.54,390.94 646.84,392.91 652.13,394.81 657.43,396.62 662.72,398.32 668.02,399.88 673.31,401.27 678.61,402.49 683.90,403.51 689.20,403.70 694.50,401.03 699.79,395.58 705.09,387.63 710.38,377.46 715.68,365.33 720.97,351.52 726.27,336.32 731.56,319.98 736.86,302.80 742.16,285.05 747.45,266.99 752.75,248.92 758.04,231.09 763.34,213.80 768.63,197.31 773.93,181.90 779.22,167.84 784.52,155.41 789.82,144.89 795.11,136.56 800.41,130.68 805.70,127.47 811.00,123.96 816.29,119.05 821.59,113.86 826.88,109.48 832.18,106.85 837.48,104.71 842.77,102.52 848.07,100.30 853.36,98.05 858.66,95.78 863.95,93.49 869.25,91.19 874.54,88.88 879.84,86.57 885.14,84.26 890.43,81.96 895.73,79.68 901.02,77.42 906.32,75.18 911.61,72.98 916.91,70.82 922.20,68.70 927.50,66.62 932.79,64.61 938.09,62.65 943.39,60.76 948.68,58.94 953.98,57.20 959.27,55.54 964.57,53.96 969.86,52.48 975.16,51.10 980.45,49.83 985.75,48.67 991.05,47.62" style="stroke-width: 2.13;stroke: #595959;stroke-linecap: butt;"/>
<circle cx="991.05" cy="471.34" r="1.95" style="stroke-width: 0.71;fill: #000000;"/>
<circle cx="830.39" cy="484.24" r="1.95" style="stroke-width: 0.71;fill: #000000;"/>
<circle cx="804.96" cy="484.49" r="1.95" style="stroke-width: 0.71;fill: #000000;"/>
<circle cx="685.81" cy="529.67" r="1.95" style="stroke-width: 0.71;fill: #000000;"/>
<circle cx="572.70" cy="533.27" r="1.95" style="stroke-width: 0.71;fill: #000000;"/>
<polyline points="572.70,533.27 577.99,533.17 583.29,533.05 588.58,532.92 593.88,532.76 599.18,532.60 604.47,532.42 609.77,532.22 615.06,532.03 620.36,531.82 625.65,531.61 630.95,531.40 636.24,531.19 641.54,530.98 646.84,530.78 652.13,530.59 657.43,530.40 662.72,530.23 668.02,530.07 673.31,529.93 678.61,529.80 683.90,529.70 689.20,529.51 694.50,528.87 699.79,527.78 705.09,526.30 710.38,524.47 715.68,522.34 720.97,519.94 726.27,517.34 731.56,514.58 736.86,511.69 742.16,508.73 747.45,505.75 752.75,502.79 758.04,499.90 763.34,497.11 768.63,494.49 773.93,492.08 779.22,489.91 784.52,488.05 789.82,486.53 795.11,485.40 800.41,484.70 805.70,484.49 811.00,484.44 816.29,484.38 821.59,484.32 826.88,484.27 832.18,484.23 837.48,484.15 842.77,484.01 848.07,483.81 853.36,483.56 858.66,483.26 863.95,482.91 869.25,482.52 874.54,482.09 879.84,481.64 885.14,481.15 890.43,480.63 895.73,480.10 901.02,479.54 906.32,478.98 911.61,478.40 916.91,477.82 922.20,477.24 927.50,476.66 932.79,476.08 938.09,475.52 943.39,474.97 948.68,474.44 953.98,473.93 959.27,473.45 964.57,473.00 969.86,472.58 975.16,472.20 980.45,471.86 985.75,471.57 991.05,471.34" style="stroke-width: 2.13;stroke-linecap: butt;"/>
<circle cx="991.05" cy="304.16" r="1.95" style="stroke-width: 0.71;stroke: #A6A6A6;fill: #A6A6A6;"/>
<circle cx="830.39" cy="331.59" r="1.95" style="stroke-width: 0.71;stroke: #A6A6A6;fill: #A6A6A6;"/>
<circle cx="804.96" cy="343.62" r="1.95" style="stroke-width: 0.71;stroke: #A6A6A6;fill: #A6A6A6;"/>
<circle cx="685.81" cy="477.67" r="1.95" style="stroke-width: 0.71;stroke: #A6A6A6;fill: #A6A6A6;"/>
<circle cx="572.70" cy="463.52" r="1.95" style="stroke-width: 0.71;stroke: #A6A6A6;fill: #A6A6A6;"/>
<polyline points="572.70,463.52 577.99,463.89 583.29,464.35 588.58,464.89 593.88,465.49 599.18,466.15 604.47,466.86 609.77,467.62 615.06,468.40 620.36,469.21 625.65,470.03 630.95,470.86 636.24,471.68 641.54,472.49 646.84,473.29 652.13,474.05 657.43,474.78 662.72,475.46 668.02,476.08 673.31,476.64 678.61,477.13 683.90,477.54 689.20,477.57 694.50,476.24 699.79,473.59 705.09,469.74 710.38,464.84 715.68,459.00 720.97,452.36 726.27,445.05 731.56,437.20 736.86,428.94 742.16,420.39 747.45,411.70 752.75,402.99 758.04,394.39 763.34,386.03 768.63,378.04 773.93,370.56 779.22,363.70 784.52,357.61 789.82,352.41 795.11,348.23 800.41,345.21 805.70,343.43 811.00,341.34 816.29,338.42 821.59,335.34 826.88,332.73 832.18,331.16 837.48,329.92 842.77,328.70 848.07,327.50 853.36,326.31 858.66,325.14 863.95,324.00 869.25,322.87 874.54,321.77 879.84,320.68 885.14,319.62 890.43,318.58 895.73,317.57 901.02,316.58 906.32,315.61 911.61,314.68 916.91,313.76 922.20,312.88 927.50,312.02 932.79,311.19 938.09,310.39 943.39,309.63 948.68,308.89 953.98,308.18 959.27,307.50 964.57,306.86 969.86,306.25 975.16,305.67 980.45,305.13 985.75,304.63 991.05,304.16" style="stroke-width: 2.13;stroke: #A6A6A6;stroke-linecap: butt;"/>
<g><text x="992.75" y="47.01" style="font-family: Arial;font-size: 8.54px;fill: #595959;" textLength="17.06px" lengthAdjust="spacingAndGlyphs">SVP</text></g>
<g><text x="831.53" y="106.95" style="font-family: Arial;font-size: 8.54px;fill: #595959;" textLength="11.38px" lengthAdjust="spacingAndGlyphs">SP</text></g>
<g><text x="806.67" y="127.18" style="font-family: Arial;font-size: 8.54px;fill: #595959;" textLength="17.06px" lengthAdjust="spacingAndGlyphs">FDP</text></g>
<g><text x="687.61" y="403.21" style="font-family: Arial;font-size: 8.54px;fill: #595959;" textLength="18.01px" lengthAdjust="spacingAndGlyphs">GPS</text></g>
<g><text x="573.84" y="367.96" style="font-family: Arial;font-size: 8.54px;fill: #595959;" textLength="11.38px" lengthAdjust="spacingAndGlyphs">glp</text></g>
</g><g clip-path="url(#c54)">
<g><text transform="translate(100.62,566.94) rotate(-45.00)" text-anchor="end" style="font-family: Arial;font-size: 8.80px;fill: #4D4D4D;" textLength="17.60px" lengthAdjust="spacingAndGlyphs">SVP</text></g>
<g><text transform="translate(189.11,566.94) rotate(-45.00)" text-anchor="end" style="font-family: Arial;font-size: 8.80px;fill: #4D4D4D;" textLength="11.74px" lengthAdjust="spacingAndGlyphs">SP</text></g>
<g><text transform="translate(277.61,566.94) rotate(-45.00)" text-anchor="end" style="font-family: Arial;font-size: 8.80px;fill: #4D4D4D;" textLength="17.59px" lengthAdjust="spacingAndGlyphs">FDP</text></g>
<g><text transform="translate(366.11,566.94) rotate(-45.00)" text-anchor="end" style="font-family: Arial;font-size: 8.80px;fill: #4D4D4D;" textLength="11.74px" lengthAdjust="spacingAndGlyphs">glp</text></g>
<g><text transform="translate(454.60,566.94) rotate(-45.00)" text-anchor="end" style="font-family: Arial;font-size: 8.80px;fill: #4D4D4D;" textLength="18.58px" lengthAdjust="spacingAndGlyphs">GPS</text></g>
</g><g clip-path="url(#c56)">
<g><text x="273.15" y="592.09" text-anchor="middle" style="font-family: Arial;font-size: 11.00px;" textLength="25.68px" lengthAdjust="spacingAndGlyphs">Party</text></g>
</g><g clip-path="url(#c64)">
<g><text x="649.50" y="568.79" text-anchor="middle" style="font-family: Arial;font-size: 8.80px;fill: #4D4D4D;" textLength="17.13px" lengthAdjust="spacingAndGlyphs">14.0</text></g>
<g><text x="777.00" y="568.79" text-anchor="middle" style="font-family: Arial;font-size: 8.80px;fill: #4D4D4D;" textLength="17.13px" lengthAdjust="spacingAndGlyphs">14.5</text></g>
<g><text x="904.51" y="568.79" text-anchor="middle" style="font-family: Arial;font-size: 8.80px;fill: #4D4D4D;" textLength="17.13px" lengthAdjust="spacingAndGlyphs">15.0</text></g>
</g><g clip-path="url(#c66)">
<g><text x="781.87" y="581.37" text-anchor="middle" style="font-family: Arial;font-size: 11.00px;" textLength="166.95px" lengthAdjust="spacingAndGlyphs">Log of Earnings of national parties</text></g>
</g><g clip-path="url(#c90)">
<circle cx="1037.04" cy="281.06" r="1.95" style="stroke-width: 0.71;fill: #000000;"/>
<rect x="1028.40" y="272.42" width="17.28" height="17.28" style="stroke-width: 0.75;stroke: none;fill: #999999;fill-opacity: 0.40;"/>
<line x1="1030.13" y1="281.06" x2="1043.95" y2="281.06" style="stroke-width: 2.13;stroke-linecap: butt;"/>
<circle cx="1037.04" cy="281.06" r="1.95" style="stroke-width: 0.71;fill: #000000;"/>
<rect x="1028.40" y="272.42" width="17.28" height="17.28" style="stroke-width: 0.75;stroke: none;fill: #999999;fill-opacity: 0.40;"/>
<line x1="1030.13" y1="281.06" x2="1043.95" y2="281.06" style="stroke-width: 2.13;stroke-linecap: butt;"/>
<circle cx="1037.04" cy="281.06" r="1.95" style="stroke-width: 0.71;fill: #000000;"/>
<rect x="1028.40" y="272.42" width="17.28" height="17.28" style="stroke-width: 0.75;stroke: none;fill: #999999;fill-opacity: 0.40;"/>
<line x1="1030.13" y1="281.06" x2="1043.95" y2="281.06" style="stroke-width: 2.13;stroke-linecap: butt;"/>
<g><text x="1037.04" y="284.12" text-anchor="middle" style="font-family: Arial;font-size: 8.54px;" textLength="4.74px" lengthAdjust="spacingAndGlyphs">a</text></g>
<circle cx="1037.04" cy="298.34" r="1.95" style="stroke-width: 0.71;stroke: #A6A6A6;fill: #A6A6A6;"/>
<rect x="1028.40" y="289.70" width="17.28" height="17.28" style="stroke-width: 0.75;stroke: none;fill: #999999;fill-opacity: 0.40;"/>
<line x1="1030.13" y1="298.34" x2="1043.95" y2="298.34" style="stroke-width: 2.13;stroke: #A6A6A6;stroke-linecap: butt;"/>
<circle cx="1037.04" cy="298.34" r="1.95" style="stroke-width: 0.71;stroke: #A6A6A6;fill: #A6A6A6;"/>
<rect x="1028.40" y="289.70" width="17.28" height="17.28" style="stroke-width: 0.75;stroke: none;fill: #999999;fill-opacity: 0.40;"/>
<line x1="1030.13" y1="298.34" x2="1043.95" y2="298.34" style="stroke-width: 2.13;stroke: #A6A6A6;stroke-linecap: butt;"/>
<circle cx="1037.04" cy="298.34" r="1.95" style="stroke-width: 0.71;stroke: #A6A6A6;fill: #A6A6A6;"/>
<rect x="1028.40" y="289.70" width="17.28" height="17.28" style="stroke-width: 0.75;stroke: none;fill: #999999;fill-opacity: 0.40;"/>
<line x1="1030.13" y1="298.34" x2="1043.95" y2="298.34" style="stroke-width: 2.13;stroke: #A6A6A6;stroke-linecap: butt;"/>
<g><text x="1037.04" y="301.40" text-anchor="middle" style="font-family: Arial;font-size: 8.54px;fill: #A6A6A6;" textLength="4.74px" lengthAdjust="spacingAndGlyphs">a</text></g>
<circle cx="1037.04" cy="315.62" r="1.95" style="stroke-width: 0.71;stroke: #595959;fill: #595959;"/>
<rect x="1028.40" y="306.98" width="17.28" height="17.28" style="stroke-width: 0.75;stroke: none;fill: #999999;fill-opacity: 0.40;"/>
<line x1="1030.13" y1="315.62" x2="1043.95" y2="315.62" style="stroke-width: 2.13;stroke: #595959;stroke-linecap: butt;"/>
<circle cx="1037.04" cy="315.62" r="1.95" style="stroke-width: 0.71;stroke: #595959;fill: #595959;"/>
<rect x="1028.40" y="306.98" width="17.28" height="17.28" style="stroke-width: 0.75;stroke: none;fill: #999999;fill-opacity: 0.40;"/>
<line x1="1030.13" y1="315.62" x2="1043.95" y2="315.62" style="stroke-width: 2.13;stroke: #595959;stroke-linecap: butt;"/>
<circle cx="1037.04" cy="315.62" r="1.95" style="stroke-width: 0.71;stroke: #595959;fill: #595959;"/>
<rect x="1028.40" y="306.98" width="17.28" height="17.28" style="stroke-width: 0.75;stroke: none;fill: #999999;fill-opacity: 0.40;"/>
<line x1="1030.13" y1="315.62" x2="1043.95" y2="315.62" style="stroke-width: 2.13;stroke: #595959;stroke-linecap: butt;"/>
<g><text x="1037.04" y="318.68" text-anchor="middle" style="font-family: Arial;font-size: 8.54px;fill: #595959;" textLength="4.74px" lengthAdjust="spacingAndGlyphs">a</text></g>
<g><text x="1051.16" y="284.22" style="font-family: Arial;font-size: 8.80px;" textLength="133.48px" lengthAdjust="spacingAndGlyphs">Occurrences within 1 month of ED</text></g>
<g><text x="1051.16" y="301.50" style="font-family: Arial;font-size: 8.80px;" textLength="137.88px" lengthAdjust="spacingAndGlyphs">Occurrences within 3 months of ED</text></g>
<g><text x="1051.16" y="318.78" style="font-family: Arial;font-size: 8.80px;" textLength="137.88px" lengthAdjust="spacingAndGlyphs">Occurrences within 6 months of ED</text></g>
</g>
</svg>