<svg xmlns="http://www.w3.org/2000/svg" xmlns:xlink="http://www.w3.org/1999/xlink" class="httpgd" width="1200.00" height="600.00" viewBox="0 0 923.08 461.54">
<defs>
  <style type='text/css'><![CDATA[
    .httpgd line, .httpgd polyline, .httpgd polygon, .httpgd path, .httpgd rect, .httpgd circle {
      fill: none;
      stroke: #000000;
      stroke-linecap: round;
      stroke-linejoin: round;
      stroke-miterlimit: 10.00;
    }
  ]]></style>
<clipPath id="c0"><rect x="0.00" y="0.00" width="923.08" height="461.54"/></clipPath>
<clipPath id="c1"><rect x="40.60" y="23.34" width="738.41" height="376.08"/></clipPath>
<clipPath id="c2"><rect x="0.00" y="0.00" width="923.08" height="461.54"/></clipPath>
</defs>
<rect width="100%" height="100%" style="stroke: none;fill: #FFFFFF;"/>
<g clip-path="url(#c0)">
</g><g clip-path="url(#c1)">
<polyline points="40.60,339.58 779.02,339.58" style="stroke-width: 0.53;stroke: #EBEBEB;stroke-linecap: butt;"/>
<polyline points="40.60,254.11 779.02,254.11" style="stroke-width: 0.53;stroke: #EBEBEB;stroke-linecap: butt;"/>
<polyline points="40.60,168.64 779.02,168.64" style="stroke-width: 0.53;stroke: #EBEBEB;stroke-linecap: butt;"/>
<polyline points="40.60,83.17 779.02,83.17" style="stroke-width: 0.53;stroke: #EBEBEB;stroke-linecap: butt;"/>
<polyline points="45.65,399.41 45.65,23.34" style="stroke-width: 0.53;stroke: #EBEBEB;stroke-linecap: butt;"/>
<polyline points="181.66,399.41 181.66,23.34" style="stroke-width: 0.53;stroke: #EBEBEB;stroke-linecap: butt;"/>
<polyline points="315.48,399.41 315.48,23.34" style="stroke-width: 0.53;stroke: #EBEBEB;stroke-linecap: butt;"/>
<polyline points="449.30,399.41 449.30,23.34" style="stroke-width: 0.53;stroke: #EBEBEB;stroke-linecap: butt;"/>
<polyline points="585.31,399.41 585.31,23.34" style="stroke-width: 0.53;stroke: #EBEBEB;stroke-linecap: butt;"/>
<polyline points="721.32,399.41 721.32,23.34" style="stroke-width: 0.53;stroke: #EBEBEB;stroke-linecap: butt;"/>
<polyline points="40.60,382.32 779.02,382.32" style="stroke-width: 1.07;stroke: #EBEBEB;stroke-linecap: butt;"/>
<polyline points="40.60,296.85 779.02,296.85" style="stroke-width: 1.07;stroke: #EBEBEB;stroke-linecap: butt;"/>
<polyline points="40.60,211.37 779.02,211.37" style="stroke-width: 1.07;stroke: #EBEBEB;stroke-linecap: butt;"/>
<polyline points="40.60,125.90 779.02,125.90" style="stroke-width: 1.07;stroke: #EBEBEB;stroke-linecap: butt;"/>
<polyline points="40.60,40.43 779.02,40.43" style="stroke-width: 1.07;stroke: #EBEBEB;stroke-linecap: butt;"/>
<polyline points="113.66,399.41 113.66,23.34" style="stroke-width: 1.07;stroke: #EBEBEB;stroke-linecap: butt;"/>
<polyline points="249.67,399.41 249.67,23.34" style="stroke-width: 1.07;stroke: #EBEBEB;stroke-linecap: butt;"/>
<polyline points="381.29,399.41 381.29,23.34" style="stroke-width: 1.07;stroke: #EBEBEB;stroke-linecap: butt;"/>
<polyline points="517.30,399.41 517.30,23.34" style="stroke-width: 1.07;stroke: #EBEBEB;stroke-linecap: butt;"/>
<polyline points="653.32,399.41 653.32,23.34" style="stroke-width: 1.07;stroke: #EBEBEB;stroke-linecap: butt;"/>
<circle cx="74.17" cy="271.08" r="1.95" style="stroke-width: 0.71;stroke: #F8766D;fill: #F8766D;"/>
<circle cx="473.43" cy="281.68" r="1.95" style="stroke-width: 0.71;stroke: #F8766D;fill: #F8766D;"/>
<circle cx="745.45" cy="276.66" r="1.95" style="stroke-width: 0.71;stroke: #F8766D;fill: #F8766D;"/>
<circle cx="74.17" cy="307.35" r="1.95" style="stroke-width: 0.71;stroke: #00B0F6;fill: #00B0F6;"/>
<circle cx="473.43" cy="317.88" r="1.95" style="stroke-width: 0.71;stroke: #00B0F6;fill: #00B0F6;"/>
<circle cx="745.45" cy="298.32" r="1.95" style="stroke-width: 0.71;stroke: #00B0F6;fill: #00B0F6;"/>
<circle cx="74.17" cy="270.37" r="1.95" style="stroke-width: 0.71;stroke: #00BF7D;fill: #00BF7D;"/>
<circle cx="473.43" cy="238.22" r="1.95" style="stroke-width: 0.71;stroke: #00BF7D;fill: #00BF7D;"/>
<circle cx="745.45" cy="285.30" r="1.95" style="stroke-width: 0.71;stroke: #00BF7D;fill: #00BF7D;"/>
<circle cx="74.17" cy="276.18" r="1.95" style="stroke-width: 0.71;stroke: #FF62BC;fill: #FF62BC;"/>
<circle cx="473.43" cy="254.95" r="1.95" style="stroke-width: 0.71;stroke: #FF62BC;fill: #FF62BC;"/>
<circle cx="745.45" cy="268.15" r="1.95" style="stroke-width: 0.71;stroke: #FF62BC;fill: #FF62BC;"/>
<circle cx="74.17" cy="190.59" r="1.95" style="stroke-width: 0.71;stroke: #E76BF3;fill: #E76BF3;"/>
<circle cx="473.43" cy="183.51" r="1.95" style="stroke-width: 0.71;stroke: #E76BF3;fill: #E76BF3;"/>
<circle cx="745.45" cy="201.03" r="1.95" style="stroke-width: 0.71;stroke: #E76BF3;fill: #E76BF3;"/>
<circle cx="74.17" cy="70.13" r="1.95" style="stroke-width: 0.71;stroke: #39B600;fill: #39B600;"/>
<circle cx="473.43" cy="98.51" r="1.95" style="stroke-width: 0.71;stroke: #39B600;fill: #39B600;"/>
<circle cx="745.45" cy="122.09" r="1.95" style="stroke-width: 0.71;stroke: #39B600;fill: #39B600;"/>
<circle cx="74.17" cy="286.38" r="1.95" style="stroke-width: 0.71;stroke: #A3A500;fill: #A3A500;"/>
<circle cx="473.43" cy="291.01" r="1.95" style="stroke-width: 0.71;stroke: #A3A500;fill: #A3A500;"/>
<circle cx="745.45" cy="302.97" r="1.95" style="stroke-width: 0.71;stroke: #A3A500;fill: #A3A500;"/>
<circle cx="74.17" cy="218.36" r="1.95" style="stroke-width: 0.71;stroke: #9590FF;fill: #9590FF;"/>
<circle cx="473.43" cy="178.44" r="1.95" style="stroke-width: 0.71;stroke: #9590FF;fill: #9590FF;"/>
<circle cx="745.45" cy="98.70" r="1.95" style="stroke-width: 0.71;stroke: #9590FF;fill: #9590FF;"/>
<circle cx="74.17" cy="224.45" r="1.95" style="stroke-width: 0.71;stroke: #00BFC4;fill: #00BFC4;"/>
<circle cx="473.43" cy="254.67" r="1.95" style="stroke-width: 0.71;stroke: #00BFC4;fill: #00BFC4;"/>
<circle cx="745.45" cy="224.16" r="1.95" style="stroke-width: 0.71;stroke: #00BFC4;fill: #00BFC4;"/>
<circle cx="74.17" cy="290.35" r="1.95" style="stroke-width: 0.71;stroke: #D89000;fill: #D89000;"/>
<circle cx="473.43" cy="284.97" r="1.95" style="stroke-width: 0.71;stroke: #D89000;fill: #D89000;"/>
<circle cx="745.45" cy="295.00" r="1.95" style="stroke-width: 0.71;stroke: #D89000;fill: #D89000;"/>
<polyline points="74.17,271.08 473.43,281.68 745.45,276.66" style="stroke-width: 1.07;stroke: #F8766D;stroke-linecap: butt;"/>
<polyline points="74.17,290.35 473.43,284.97 745.45,295.00" style="stroke-width: 1.07;stroke: #D89000;stroke-linecap: butt;"/>
<polyline points="74.17,286.38 473.43,291.01 745.45,302.97" style="stroke-width: 1.07;stroke: #A3A500;stroke-linecap: butt;"/>
<polyline points="74.17,70.13 473.43,98.51 745.45,122.09" style="stroke-width: 1.07;stroke: #39B600;stroke-linecap: butt;"/>
<polyline points="74.17,270.37 473.43,238.22 745.45,285.30" style="stroke-width: 1.07;stroke: #00BF7D;stroke-linecap: butt;"/>
<polyline points="74.17,224.45 473.43,254.67 745.45,224.16" style="stroke-width: 1.07;stroke: #00BFC4;stroke-linecap: butt;"/>
<polyline points="74.17,307.35 473.43,317.88 745.45,298.32" style="stroke-width: 1.07;stroke: #00B0F6;stroke-linecap: butt;"/>
<polyline points="74.17,218.36 473.43,178.44 745.45,98.70" style="stroke-width: 1.07;stroke: #9590FF;stroke-linecap: butt;"/>
<polyline points="74.17,190.59 473.43,183.51 745.45,201.03" style="stroke-width: 1.07;stroke: #E76BF3;stroke-linecap: butt;"/>
<polyline points="74.17,276.18 473.43,254.95 745.45,268.15" style="stroke-width: 1.07;stroke: #FF62BC;stroke-linecap: butt;"/>
</g><g clip-path="url(#c2)">
<g><text x="35.67" y="385.47" text-anchor="end" style="font-family: Arial;font-size: 8.80px;fill: #4D4D4D;" textLength="17.13px" lengthAdjust="spacingAndGlyphs">0.00</text></g>
<g><text x="35.67" y="300.00" text-anchor="end" style="font-family: Arial;font-size: 8.80px;fill: #4D4D4D;" textLength="17.13px" lengthAdjust="spacingAndGlyphs">0.05</text></g>
<g><text x="35.67" y="214.53" text-anchor="end" style="font-family: Arial;font-size: 8.80px;fill: #4D4D4D;" textLength="17.13px" lengthAdjust="spacingAndGlyphs">0.10</text></g>
<g><text x="35.67" y="129.06" text-anchor="end" style="font-family: Arial;font-size: 8.80px;fill: #4D4D4D;" textLength="17.13px" lengthAdjust="spacingAndGlyphs">0.15</text></g>
<g><text x="35.67" y="43.58" text-anchor="end" style="font-family: Arial;font-size: 8.80px;fill: #4D4D4D;" textLength="17.13px" lengthAdjust="spacingAndGlyphs">0.20</text></g>
<g><text transform="translate(119.96,404.34) rotate(-90.00)" text-anchor="end" style="font-family: Arial;font-size: 8.80px;fill: #4D4D4D;" textLength="38.65px" lengthAdjust="spacingAndGlyphs">May 2023</text></g>
<g><text transform="translate(255.98,404.34) rotate(-90.00)" text-anchor="end" style="font-family: Arial;font-size: 8.80px;fill: #4D4D4D;" textLength="36.22px" lengthAdjust="spacingAndGlyphs">Jun 2023</text></g>
<g><text transform="translate(387.60,404.34) rotate(-90.00)" text-anchor="end" style="font-family: Arial;font-size: 8.80px;fill: #4D4D4D;" textLength="33.27px" lengthAdjust="spacingAndGlyphs">Jul 2023</text></g>
<g><text transform="translate(523.61,404.34) rotate(-90.00)" text-anchor="end" style="font-family: Arial;font-size: 8.80px;fill: #4D4D4D;" textLength="37.68px" lengthAdjust="spacingAndGlyphs">Aug 2023</text></g>
<g><text transform="translate(659.62,404.34) rotate(-90.00)" text-anchor="end" style="font-family: Arial;font-size: 8.80px;fill: #4D4D4D;" textLength="37.68px" lengthAdjust="spacingAndGlyphs">Sep 2023</text></g>
<g><text x="409.81" y="453.63" text-anchor="middle" style="font-family: Arial;font-size: 11.00px;" textLength="23.23px" lengthAdjust="spacingAndGlyphs">Date</text></g>
<g><text transform="translate(13.37,211.37) rotate(-90.00)" text-anchor="middle" style="font-family: Arial;font-size: 11.00px;" textLength="135.14px" lengthAdjust="spacingAndGlyphs">Media Topic Salience Index</text></g>
<g><text x="795.46" y="126.18" style="font-family: Arial;font-size: 11.00px;" textLength="57.46px" lengthAdjust="spacingAndGlyphs">Major Topic</text></g>
<circle cx="804.10" cy="141.52" r="1.95" style="stroke-width: 0.71;stroke: #F8766D;fill: #F8766D;"/>
<line x1="797.18" y1="141.52" x2="811.01" y2="141.52" style="stroke-width: 1.07;stroke: #F8766D;stroke-linecap: butt;"/>
<circle cx="804.10" cy="158.80" r="1.95" style="stroke-width: 0.71;stroke: #D89000;fill: #D89000;"/>
<line x1="797.18" y1="158.80" x2="811.01" y2="158.80" style="stroke-width: 1.07;stroke: #D89000;stroke-linecap: butt;"/>
<circle cx="804.10" cy="176.08" r="1.95" style="stroke-width: 0.71;stroke: #A3A500;fill: #A3A500;"/>
<line x1="797.18" y1="176.08" x2="811.01" y2="176.08" style="stroke-width: 1.07;stroke: #A3A500;stroke-linecap: butt;"/>
<circle cx="804.10" cy="193.36" r="1.95" style="stroke-width: 0.71;stroke: #39B600;fill: #39B600;"/>
<line x1="797.18" y1="193.36" x2="811.01" y2="193.36" style="stroke-width: 1.07;stroke: #39B600;stroke-linecap: butt;"/>
<circle cx="804.10" cy="210.64" r="1.95" style="stroke-width: 0.71;stroke: #00BF7D;fill: #00BF7D;"/>
<line x1="797.18" y1="210.64" x2="811.01" y2="210.64" style="stroke-width: 1.07;stroke: #00BF7D;stroke-linecap: butt;"/>
<circle cx="804.10" cy="227.92" r="1.95" style="stroke-width: 0.71;stroke: #00BFC4;fill: #00BFC4;"/>
<line x1="797.18" y1="227.92" x2="811.01" y2="227.92" style="stroke-width: 1.07;stroke: #00BFC4;stroke-linecap: butt;"/>
<circle cx="804.10" cy="245.20" r="1.95" style="stroke-width: 0.71;stroke: #00B0F6;fill: #00B0F6;"/>
<line x1="797.18" y1="245.20" x2="811.01" y2="245.20" style="stroke-width: 1.07;stroke: #00B0F6;stroke-linecap: butt;"/>
<circle cx="804.10" cy="262.48" r="1.95" style="stroke-width: 0.71;stroke: #9590FF;fill: #9590FF;"/>
<line x1="797.18" y1="262.48" x2="811.01" y2="262.48" style="stroke-width: 1.07;stroke: #9590FF;stroke-linecap: butt;"/>
<circle cx="804.10" cy="279.76" r="1.95" style="stroke-width: 0.71;stroke: #E76BF3;fill: #E76BF3;"/>
<line x1="797.18" y1="279.76" x2="811.01" y2="279.76" style="stroke-width: 1.07;stroke: #E76BF3;stroke-linecap: butt;"/>
<circle cx="804.10" cy="297.04" r="1.95" style="stroke-width: 0.71;stroke: #FF62BC;fill: #FF62BC;"/>
<line x1="797.18" y1="297.04" x2="811.01" y2="297.04" style="stroke-width: 1.07;stroke: #FF62BC;stroke-linecap: butt;"/>
<g><text x="818.22" y="144.67" style="font-family: Arial;font-size: 8.80px;" textLength="43.98px" lengthAdjust="spacingAndGlyphs">Civil Rights</text></g>
<g><text x="818.22" y="161.95" style="font-family: Arial;font-size: 8.80px;" textLength="28.36px" lengthAdjust="spacingAndGlyphs">Culture</text></g>
<g><text x="818.22" y="179.23" style="font-family: Arial;font-size: 8.80px;" textLength="32.77px" lengthAdjust="spacingAndGlyphs">Defense</text></g>
<g><text x="818.22" y="196.51" style="font-family: Arial;font-size: 8.80px;" textLength="82.13px" lengthAdjust="spacingAndGlyphs">Domestic Commerce</text></g>
<g><text x="818.22" y="213.79" style="font-family: Arial;font-size: 8.80px;" textLength="49.40px" lengthAdjust="spacingAndGlyphs">Environment</text></g>
<g><text x="818.22" y="231.07" style="font-family: Arial;font-size: 8.80px;" textLength="93.90px" lengthAdjust="spacingAndGlyphs">Government Operations</text></g>
<g><text x="818.22" y="248.35" style="font-family: Arial;font-size: 8.80px;" textLength="25.43px" lengthAdjust="spacingAndGlyphs">Health</text></g>
<g><text x="818.22" y="265.63" style="font-family: Arial;font-size: 8.80px;" textLength="75.79px" lengthAdjust="spacingAndGlyphs">International Affairs</text></g>
<g><text x="818.22" y="282.91" style="font-family: Arial;font-size: 8.80px;" textLength="59.17px" lengthAdjust="spacingAndGlyphs">Law and Crime</text></g>
<g><text x="818.22" y="300.19" style="font-family: Arial;font-size: 8.80px;" textLength="56.74px" lengthAdjust="spacingAndGlyphs">Transportation</text></g>
<g><text x="40.60" y="14.94" style="font-family: Arial;font-size: 13.20px;" textLength="259.51px" lengthAdjust="spacingAndGlyphs">Distribution of MISI for most important topics</text></g>
</g>
</svg>